<?xml version="1.0" encoding="utf-8"?>
<!-- Generator: Adobe Illustrator 23.0.3, SVG Export Plug-In . SVG Version: 6.00 Build 0)  -->
<svg version="1.1" id="Layer_1" xmlns="http://www.w3.org/2000/svg" xmlns:xlink="http://www.w3.org/1999/xlink" x="0px" y="0px"
	 viewBox="0 0 24.7 21.4" style="enable-background:new 0 0 24.7 21.4;" xml:space="preserve">
<path d="M14.5,0.2l9.9,9.9c0.3,0.3,0.3,0.8,0,1.1l-9.9,9.9c-0.3,0.3-0.8,0.3-1.1,0l-0.5-0.5c-0.3-0.3-0.3-0.8,0-1.1l7.8-7.7H0.8
	C0.4,11.8,0,11.5,0,11v-0.7c0-0.4,0.4-0.8,0.8-0.8h19.9l-7.8-7.7c-0.3-0.3-0.3-0.8,0-1.1l0.5-0.5C13.7-0.1,14.2-0.1,14.5,0.2z"/>
</svg>
